<?xml version="1.0" standalone="no"?>
<!DOCTYPE svg PUBLIC "-//W3C//DTD SVG 20010904//EN"
 "http://www.w3.org/TR/2001/REC-SVG-20010904/DTD/svg10.dtd">
<svg version="1.0" xmlns="http://www.w3.org/2000/svg"
 width="260.000000pt" height="260.000000pt" viewBox="0 0 260.000000 260.000000"
 preserveAspectRatio="xMidYMid meet">
<metadata>
Created by potrace 1.14, written by Peter Selinger 2001-2017
</metadata>
<g transform="translate(0.000000,260.000000) scale(0.100000,-0.100000)"
fill="#000000" stroke="none">
<path d="M1255 2579 c-6 -17 -9 -18 -16 -8 -15 24 -19 4 -20 -97 -2 -122 -17
-172 -19 -64 -1 41 -2 97 -1 123 1 35 -2 48 -11 45 -14 -5 -18 -172 -8 -273 3
-27 2 -63 -1 -80 -5 -24 -7 -18 -8 25 -4 124 -13 286 -16 298 -3 6 -9 12 -15
12 -10 0 -8 -99 5 -250 14 -165 16 -214 11 -209 -11 10 -30 136 -42 279 -10
121 -18 163 -32 168 -19 6 -15 -64 13 -221 2 -15 1 -26 -4 -23 -5 3 -12 32
-16 63 -4 32 -8 67 -10 78 -2 11 -7 39 -10 62 -3 24 -10 45 -15 48 -17 10 -20
-31 -6 -95 12 -60 13 -80 2 -69 -3 2 -11 35 -18 74 l-15 69 -36 3 c-43 2 -44
-3 -21 -71 9 -26 14 -50 10 -53 -6 -6 -34 54 -39 84 -1 10 -6 24 -11 31 -12
20 -40 -10 -62 -66 -16 -42 -18 -44 -24 -23 -6 26 -35 50 -46 38 -4 -3 -3 -12
3 -19 5 -7 22 -44 37 -83 15 -38 34 -83 42 -99 8 -16 12 -31 10 -34 -6 -6 -86
156 -86 174 0 6 -7 17 -15 24 -37 31 -21 -26 44 -155 39 -77 68 -141 65 -144
-8 -9 -22 14 -58 94 -57 131 -97 198 -109 186 -11 -11 8 -54 83 -190 17 -30
29 -59 27 -64 -1 -5 -30 45 -64 110 -34 66 -68 119 -77 121 -21 5 -20 -14 3
-46 10 -15 44 -74 76 -132 31 -58 70 -129 87 -157 16 -29 27 -53 24 -53 -6 0
-66 92 -87 135 -56 111 -126 225 -139 225 -18 0 -10 -31 18 -73 16 -23 46 -73
68 -112 45 -80 51 -91 81 -139 12 -20 20 -36 18 -36 -11 0 -116 153 -166 243
-48 86 -79 120 -96 104 -2 -3 13 -32 35 -64 44 -66 78 -128 65 -120 -5 3 -31
37 -59 76 -27 39 -52 71 -56 71 -10 0 -48 -32 -48 -41 0 -3 16 -27 36 -54 23
-29 29 -43 18 -37 -11 6 -28 25 -39 42 -16 24 -25 29 -43 25 -12 -3 -30 -1
-40 4 -31 17 -46 -2 -33 -39 13 -39 13 -41 4 -37 -5 1 -8 -2 -8 -7 0 -5 -10
-12 -22 -17 -20 -7 -13 -18 95 -125 64 -64 100 -103 79 -85 -38 31 -57 39 -57
22 0 -10 91 -91 102 -91 4 0 13 -10 19 -22 10 -20 8 -19 -19 5 -17 16 -38 27
-49 25 -19 -4 -22 -1 57 -68 14 -11 -17 7 -69 42 -51 35 -118 85 -148 111 -77
67 -102 82 -114 70 -7 -7 0 -18 23 -34 18 -13 42 -31 53 -41 80 -67 113 -92
161 -120 29 -18 54 -37 54 -41 0 -10 3 -12 -135 79 -60 39 -120 81 -133 94
-15 14 -29 19 -40 15 -14 -5 -12 -10 14 -33 18 -15 55 -43 83 -62 28 -19 51
-38 51 -43 0 -10 -51 17 -86 46 -40 33 -72 49 -85 42 -5 -4 14 -25 43 -46 57
-43 69 -58 44 -60 -9 -1 -22 -2 -28 -4 -7 -1 -33 9 -57 22 -49 26 -77 20 -40
-8 29 -22 9 -25 -30 -4 -22 11 -32 12 -44 2 -14 -11 -14 -16 -2 -42 8 -16 22
-41 32 -55 10 -13 13 -21 6 -17 -16 10 -26 -8 -10 -20 6 -6 33 -18 59 -29 72
-29 57 -37 -17 -10 -39 14 -68 20 -71 14 -12 -19 25 -34 196 -82 89 -25 110
-25 88 1 -11 14 -10 15 12 8 33 -10 49 -25 27 -25 -26 0 -20 -17 9 -24 15 -4
25 -9 23 -11 -6 -5 -172 39 -270 73 -48 16 -92 26 -98 22 -18 -10 5 -24 77
-45 35 -10 65 -22 67 -26 5 -7 -5 -5 -104 21 -45 12 -73 2 -49 -17 7 -6 67
-23 133 -39 66 -15 122 -28 125 -29 3 -1 22 -5 43 -9 55 -12 55 -25 -1 -15
-26 5 -53 11 -61 14 -8 3 -30 8 -50 11 -20 3 -72 14 -115 25 -57 15 -82 17
-90 9 -17 -17 3 -24 147 -54 166 -34 167 -34 195 -35 12 -1 22 -5 22 -10 0 -4
-23 -4 -51 1 -28 5 -53 7 -56 4 -3 -3 -13 -1 -23 4 -9 5 -39 12 -66 15 -27 4
-72 12 -100 20 -51 12 -89 5 -69 -13 13 -12 104 -30 185 -38 60 -6 120 -23 80
-23 -8 0 -62 6 -120 14 -57 7 -107 12 -109 9 -2 -2 -10 1 -17 7 -7 6 -18 8
-24 4 -14 -9 -1 -28 15 -21 7 2 17 0 21 -4 5 -5 40 -14 78 -19 105 -15 93 -23
-23 -16 -84 5 -102 4 -99 -7 3 -7 20 -16 39 -19 38 -6 39 -5 -51 -39 -53 -21
-58 -40 -12 -52 18 -5 30 -13 27 -18 -8 -13 15 -24 70 -31 l50 -6 -57 -2 c-43
-1 -58 -5 -58 -15 0 -12 17 -15 78 -15 178 -1 205 -15 36 -19 -60 -1 -112 -6
-118 -12 -14 -14 36 -23 103 -17 33 2 58 0 55 -4 -3 -5 -39 -9 -80 -9 -57 0
-74 -3 -74 -14 0 -25 10 -26 180 -12 47 4 99 9 115 12 23 3 26 2 10 -5 -11 -4
-56 -11 -100 -15 -44 -4 -96 -9 -114 -12 -19 -3 -49 -7 -65 -8 -38 -3 -50 -36
-14 -37 13 0 17 -3 11 -6 -18 -7 -16 -30 2 -37 8 -3 27 -1 41 4 14 6 37 10 52
9 24 0 25 -1 7 -9 -11 -5 -37 -11 -58 -15 -23 -4 -37 -11 -34 -18 4 -13 21
-13 77 -3 19 4 53 9 75 11 33 4 30 2 -15 -10 -30 -7 -72 -17 -93 -20 -34 -5
-58 -27 -44 -41 2 -3 33 2 67 11 34 9 67 14 73 12 6 -2 -20 -11 -56 -21 -45
-12 -67 -23 -67 -33 0 -12 8 -14 36 -9 19 4 43 10 52 13 15 4 15 3 2 -6 -8 -6
-22 -11 -31 -11 -9 0 -22 -6 -28 -14 -10 -11 -9 -16 5 -24 14 -8 12 -11 -15
-20 -53 -19 -34 -43 41 -51 4 -1 5 -7 3 -14 -3 -6 3 -22 13 -35 l17 -22 70 37
c39 20 86 48 105 63 19 15 51 35 70 44 l35 17 -32 -28 c-17 -15 -77 -55 -132
-88 -55 -33 -103 -65 -105 -72 -13 -31 30 -15 115 43 52 35 97 64 102 64 4 0
41 23 82 52 41 28 77 49 80 46 6 -5 -116 -88 -262 -178 -40 -25 -72 -51 -73
-58 0 -20 35 -6 115 47 93 61 106 68 70 37 -16 -14 -63 -48 -102 -74 -67 -43
-91 -72 -60 -72 15 0 104 59 175 117 30 24 59 43 65 43 13 0 15 2 -73 -71 -36
-30 -86 -67 -112 -82 -45 -26 -64 -57 -35 -57 17 0 132 83 185 133 23 23 42
38 42 35 0 -10 -104 -111 -153 -148 -46 -35 -55 -56 -23 -54 9 1 16 -4 16 -12
0 -19 24 -18 40 1 23 28 21 8 -5 -36 -13 -24 -25 -52 -25 -61 0 -21 32 -24 52
-5 7 7 31 26 53 42 22 16 52 40 68 54 48 43 29 12 -29 -49 -32 -34 -53 -64
-49 -70 5 -8 13 -6 27 7 21 18 21 18 9 -6 -8 -14 -9 -27 -4 -32 12 -12 90 71
198 210 28 36 57 73 66 82 9 9 18 20 20 25 2 5 20 23 38 39 25 21 15 4 -34
-60 -38 -49 -72 -92 -75 -95 -3 -3 -21 -25 -40 -50 -19 -25 -37 -47 -40 -50
-23 -19 -110 -122 -110 -130 0 -20 29 -9 58 23 29 31 158 181 175 202 4 5 30
40 58 78 50 67 63 80 53 52 -4 -8 -10 -15 -14 -15 -4 0 -13 -13 -20 -29 -6
-16 -19 -37 -29 -47 -9 -11 -32 -42 -51 -70 -36 -53 -81 -109 -139 -176 -23
-26 -31 -43 -26 -55 5 -15 13 -11 46 27 21 25 65 82 96 127 57 84 79 102 47
41 -24 -46 -111 -173 -129 -188 -19 -16 -20 -40 -1 -40 7 0 42 43 77 95 35 52
65 92 67 90 9 -9 13 -67 3 -61 -5 4 -33 -28 -61 -70 -40 -58 -49 -79 -40 -88
14 -13 27 2 72 87 17 31 33 55 36 52 7 -6 -17 -62 -50 -116 -15 -25 -28 -51
-28 -58 0 -16 16 -14 34 5 18 18 20 12 7 -34 -6 -18 -7 -40 -4 -48 8 -22 39
-16 58 12 29 45 87 104 96 98 5 -3 2 -16 -7 -29 -9 -15 -13 -32 -9 -42 5 -15
11 -9 31 27 14 25 23 37 20 28 -17 -57 -18 -88 -3 -88 8 0 18 6 20 13 3 7 6 5
6 -5 2 -30 31 -20 38 12 7 39 21 39 15 0 -5 -38 13 -39 31 -2 15 28 23 63 33
142 3 25 7 51 10 59 3 8 7 29 10 47 3 19 12 62 20 96 l14 63 -5 -57 c-3 -36
-1 -58 5 -58 5 0 10 9 10 19 0 11 5 23 12 27 8 5 9 2 5 -10 -4 -10 -7 -31 -7
-47 0 -16 -5 -29 -11 -29 -5 0 -7 4 -4 10 3 5 2 10 -4 10 -18 0 -19 -3 -46
-175 -9 -55 -18 -108 -19 -117 -2 -9 2 -19 10 -22 8 -3 14 -4 14 -2 0 2 5 28
10 57 6 30 14 72 17 94 19 128 21 135 16 40 -3 -55 -11 -119 -18 -141 -14 -46
-4 -82 15 -54 5 8 10 22 11 30 0 8 2 24 5 35 2 11 7 49 10 85 3 36 7 76 9 90
2 14 4 30 4 35 1 6 5 4 9 -3 5 -7 5 -34 1 -60 -15 -85 -25 -213 -18 -224 8
-13 20 5 30 46 l7 31 1 -38 c1 -46 20 -41 22 6 1 20 3 25 6 12 12 -54 26 -85
38 -85 18 0 33 21 39 54 7 36 16 46 16 17 0 -14 5 -21 13 -18 11 4 13 18 16
146 2 86 10 55 15 -59 3 -57 10 -108 16 -114 10 -10 12 -2 13 59 1 45 -15 239
-19 247 -2 4 0 9 6 13 5 3 10 -2 10 -12 1 -39 20 -253 25 -278 2 -11 4 -24 4
-29 1 -5 7 -3 14 3 8 6 12 25 11 43 l-3 33 8 -33 c10 -40 16 -46 31 -37 12 7
9 51 -10 180 -13 88 -23 201 -17 195 3 -3 8 -21 11 -40 3 -19 10 -57 15 -85 5
-27 12 -74 16 -103 7 -72 16 -126 21 -131 2 -3 9 0 15 6 8 8 8 30 0 80 -7 37
-14 82 -17 98 -3 17 -11 62 -18 100 -22 110 -27 154 -16 128 5 -12 12 -41 15
-65 4 -24 10 -47 15 -53 4 -5 11 -30 15 -55 4 -25 9 -54 11 -65 2 -11 6 -40 9
-65 8 -68 16 -100 25 -100 11 0 20 27 15 42 -2 7 -6 33 -9 58 -3 25 -8 63 -12
85 -4 29 -3 36 5 25 5 -8 13 -44 17 -80 5 -36 9 -68 10 -72 1 -5 2 -19 3 -33
1 -29 26 -34 33 -7 5 17 -13 124 -26 159 -4 9 -1 13 6 11 12 -4 23 -37 32 -94
7 -40 16 -64 26 -64 15 0 17 26 5 72 -6 26 -8 45 -4 42 5 -3 13 -23 19 -44 7
-28 16 -40 29 -40 9 0 28 -11 41 -25 41 -43 60 -27 55 46 -2 34 -1 34 36 35
41 1 69 17 69 39 0 8 8 11 20 8 14 -4 20 0 20 12 0 25 -123 258 -161 306 -17
22 -29 42 -27 44 8 8 61 -73 128 -192 66 -119 83 -142 95 -123 4 6 -4 28 -18
48 -13 21 -28 48 -32 62 -4 14 -15 34 -24 45 -24 30 -43 66 -37 72 5 5 32 -35
91 -139 22 -37 45 -70 52 -72 26 -10 12 35 -32 104 -25 38 -41 70 -35 70 5 0
15 -10 21 -22 29 -57 82 -119 92 -109 7 7 6 15 -3 26 -18 22 -6 30 14 10 9
-10 23 -14 32 -11 8 3 29 -1 46 -10 42 -22 51 -4 27 52 -15 37 -16 44 -4 44 8
0 15 5 15 10 0 6 7 10 15 10 25 0 17 24 -18 58 -31 31 -57 41 -57 24 0 -5 13
-21 30 -37 16 -16 27 -31 25 -34 -3 -3 -25 16 -48 42 -38 41 -41 46 -23 49 18
3 15 9 -24 45 -25 24 -48 43 -51 43 -4 0 -10 7 -13 16 -6 16 20 -4 114 -89 25
-22 55 -49 66 -60 15 -12 24 -15 29 -7 4 6 -27 43 -72 86 -66 64 -70 69 -23
33 30 -24 70 -59 89 -77 23 -24 37 -30 44 -23 11 11 -32 58 -104 112 -18 15
-50 42 -69 61 -19 18 -46 41 -59 51 -14 9 -22 19 -20 22 6 6 166 -121 223
-177 21 -21 45 -38 52 -38 15 0 20 36 5 42 -16 6 -190 152 -186 156 4 4 49
-28 134 -96 39 -31 57 -40 65 -32 8 8 -6 26 -49 65 -33 30 -55 55 -49 55 6 0
22 -10 36 -22 82 -74 90 -80 102 -68 11 12 6 17 -59 63 -41 30 -22 31 34 3 57
-29 116 -33 149 -10 30 21 28 29 -14 53 -28 17 -34 25 -29 41 6 18 -5 26 -79
60 -47 22 -86 41 -86 44 0 2 11 1 24 -1 47 -9 35 16 -16 33 -38 13 -47 19 -31
22 12 2 60 -11 108 -27 88 -32 125 -38 125 -22 0 15 -24 28 -85 44 -116 31
-184 52 -192 61 -11 12 25 4 141 -33 100 -32 146 -38 146 -22 0 16 -20 24
-150 57 -69 18 -120 33 -114 33 14 1 187 -35 229 -47 17 -5 36 -7 43 -5 15 6
16 33 1 33 -8 0 -8 4 1 15 18 22 5 32 -52 38 -29 4 -102 18 -163 31 -102 24
-105 25 -45 20 36 -3 88 -11 115 -19 28 -8 72 -15 100 -17 48 -3 49 -3 56 30
8 38 0 43 -81 60 -43 8 -43 9 25 8 61 -1 70 1 67 16 -1 9 7 22 18 28 33 18 25
47 -17 61 -55 17 -59 21 -34 31 14 5 21 14 18 22 -3 7 -1 18 5 24 21 21 -18
24 -163 12 -83 -7 -153 -10 -156 -6 -4 3 9 6 28 7 19 0 43 3 54 5 11 3 68 8
127 12 59 5 111 11 114 15 4 4 2 12 -4 20 -6 7 -9 23 -5 35 6 26 -6 27 -85 12
-28 -5 -73 -12 -99 -16 -26 -3 -50 -7 -53 -9 -3 -2 -34 -6 -70 -10 -36 -4 -68
-9 -72 -11 -4 -2 -9 0 -12 5 -3 4 33 15 81 22 93 15 128 39 48 33 -26 -2 -54
-5 -63 -8 -9 -3 -44 -8 -77 -11 -47 -4 -56 -3 -42 5 10 7 57 16 105 21 123 13
296 60 300 82 4 19 -18 23 -46 7 -16 -9 -122 -40 -137 -40 -3 0 -4 4 -1 8 3 5
31 14 63 21 82 19 158 60 141 77 -3 2 -32 -7 -66 -21 -68 -27 -72 -29 -72 -17
0 4 29 22 64 40 87 45 97 76 30 88 -52 9 -56 11 -42 33 17 28 5 35 -31 17 -85
-44 -105 -41 -24 4 26 14 48 31 51 38 6 18 -26 15 -56 -6 -45 -31 -158 -92
-171 -92 -7 0 35 32 93 71 58 39 106 74 106 79 0 22 -21 17 -61 -14 -74 -56
-163 -113 -186 -120 -46 -14 -21 12 70 71 50 34 108 75 127 92 29 25 32 32 20
40 -11 8 -24 2 -50 -23 -45 -43 -135 -108 -202 -146 -54 -31 -48 -25 51 53
132 104 171 139 171 152 0 22 -22 18 -45 -8 -11 -12 -40 -38 -65 -57 -25 -19
-47 -37 -50 -40 -3 -3 -21 -16 -40 -29 l-35 -23 35 32 c19 18 46 42 60 54 69
62 114 116 103 127 -7 7 -39 -16 -109 -84 -107 -102 -164 -152 -164 -143 0 3
31 37 69 75 98 99 172 191 164 203 -4 7 -42 -26 -94 -83 -49 -52 -88 -91 -89
-87 0 5 32 49 70 100 39 51 70 98 70 105 0 23 -19 14 -42 -20 -42 -59 -112
-146 -116 -142 -5 5 27 65 36 65 4 0 23 24 42 53 19 28 38 54 43 55 4 2 7 10
7 19 0 8 -16 -5 -36 -29 -46 -55 -52 -60 -30 -24 59 94 60 96 43 114 -15 15
-19 14 -46 -6 -38 -28 -46 -28 -27 0 17 24 21 48 9 48 -5 0 -33 -33 -63 -74
-30 -41 -56 -71 -58 -67 -1 5 18 41 43 82 48 78 52 89 33 89 -7 0 -37 -41 -67
-90 -29 -50 -55 -90 -57 -90 -6 0 9 34 33 72 13 21 23 40 23 43 0 3 11 23 25
45 14 22 25 44 25 50 0 17 -27 11 -35 -7 -9 -26 -146 -253 -152 -253 -2 0 29
66 71 146 50 96 70 144 60 142 -9 -2 -34 -37 -56 -78 -53 -99 -61 -111 -53
-82 4 13 25 55 46 93 37 64 42 89 19 89 -5 0 -19 -18 -30 -40 -11 -22 -23 -40
-25 -40 -3 0 4 18 15 39 22 44 11 65 -14 29 -9 -12 -16 -17 -16 -11 0 7 5 15
10 18 6 3 10 15 10 25 0 35 -28 10 -59 -53 -17 -34 -30 -57 -31 -50 0 6 11 34
25 61 28 55 29 62 16 62 -5 0 -24 -25 -41 -56 -18 -30 -34 -53 -36 -51 -3 3 7
30 21 62 27 63 30 75 15 75 -5 0 -18 -17 -29 -37 -26 -49 -27 -28 -1 36 17 43
17 51 4 62 -16 13 -47 2 -83 -32 -18 -17 -19 -17 -24 3 -3 11 -10 17 -15 14
-10 -6 -43 -114 -48 -156 -10 -88 -17 -121 -26 -127 -8 -4 -9 5 -4 28 7 32 19
102 32 179 3 19 10 43 15 52 13 24 11 38 -5 38 -17 0 -42 -99 -62 -247 -8 -59
-20 -93 -34 -93 -13 0 -13 6 5 64 8 26 17 69 21 95 3 25 11 71 19 101 17 71
18 73 16 88 -4 48 -44 -57 -55 -147 -3 -24 -9 -47 -12 -50 -12 -10 5 115 21
163 17 50 13 75 -10 56 -7 -6 -16 -38 -20 -70 -4 -33 -10 -60 -15 -60 -7 0 -6
31 4 83 2 13 0 30 -5 38 -8 12 -10 12 -19 -1 -5 -8 -10 -22 -11 -30 0 -8 -2
-49 -4 -90 -6 -114 -17 -200 -26 -195 -4 3 -6 15 -3 28 10 55 13 306 3 312 -6
4 -13 4 -16 1 -3 -3 -8 -72 -10 -153 -6 -196 -13 -207 -11 -18 2 143 -5 193
-22 166 -4 -7 -6 -59 -5 -117 1 -57 -2 -104 -7 -104 -4 0 -8 10 -9 23 0 12 -3
31 -5 42 -3 11 -6 57 -6 103 -1 61 -4 82 -15 82 -7 0 -13 -10 -14 -22 l0 -23
-9 23 c-12 28 -46 29 -55 1z m-258 -147 c7 -26 12 -58 12 -72 0 -43 -18 1 -25
61 -3 30 -9 59 -12 64 -3 6 -1 6 4 2 4 -4 14 -29 21 -55z m703 -21 c-10 -27
-21 -85 -24 -131 -5 -79 -17 -112 -53 -149 -8 -7 -27 -40 -44 -72 -16 -33 -31
-59 -33 -59 -9 0 -66 23 -66 26 0 25 55 101 107 149 l65 60 8 76 c5 47 17 89
30 112 30 50 33 46 10 -12z m-426 -158 c2 -105 1 -195 -3 -201 -7 -12 -69 -23
-75 -13 -3 4 2 39 10 77 8 38 16 80 19 94 8 40 35 219 35 232 0 6 2 9 5 6 3
-3 7 -91 9 -195z m229 147 c-3 -11 -7 -20 -9 -20 -2 0 -4 9 -4 20 0 11 4 20 9
20 5 0 7 -9 4 -20z m-606 -21 c2 -11 12 -38 23 -59 25 -49 19 -53 -8 -6 -20
34 -41 107 -26 93 4 -4 9 -17 11 -28z m166 -79 c4 -31 3 -40 -4 -28 -5 9 -12
38 -14 65 -7 61 10 28 18 -37z m244 38 c-3 -7 -5 -2 -5 12 0 14 2 19 5 13 2
-7 2 -19 0 -25z m9 -144 c1 -64 0 -114 -3 -111 -3 4 -7 59 -9 123 -2 64 -1
114 3 111 3 -4 7 -59 9 -123z m171 84 c-3 -8 -6 -5 -6 6 -1 11 2 17 5 13 3 -3
4 -12 1 -19z m213 -78 l-11 -25 6 25 c2 14 5 36 6 50 l2 25 4 -25 c2 -14 -1
-37 -7 -50z m-351 -22 c-2 -79 -2 -81 -8 -28 -4 30 -6 64 -5 75 1 11 3 23 3
28 1 4 3 7 6 7 3 0 4 -37 4 -82z m-396 28 c22 -35 28 -59 31 -113 2 -38 8 -79
15 -91 10 -18 8 -24 -12 -37 -34 -22 -53 -10 -67 41 -10 34 -10 63 -3 112 5
37 7 81 2 99 -10 45 1 41 34 -11z m56 -30 c-1 -17 -2 -16 -9 7 -5 16 -12 34
-17 41 -4 6 0 3 10 -7 9 -11 17 -29 16 -41z m398 32 c-3 -8 -6 -5 -6 6 -1 11
2 17 5 13 3 -3 4 -12 1 -19z m-290 -45 c-3 -10 -5 -4 -5 12 0 17 2 24 5 18 2
-7 2 -21 0 -30z m-421 -125 c192 -128 197 -133 164 -159 -14 -10 -27 -19 -30
-19 -3 0 -60 53 -126 118 -67 65 -139 133 -160 151 -55 46 -31 32 152 -91z
m14 77 c17 -25 29 -45 26 -45 -3 0 -19 20 -36 45 -17 25 -29 45 -26 45 3 0 19
-20 36 -45z m140 4 c15 -28 5 -23 -15 7 -9 15 -12 23 -6 20 6 -4 16 -16 21
-27z m809 -6 c-12 -21 -31 -50 -41 -65 -10 -14 -18 -32 -19 -40 0 -9 -2 -9 -5
-1 -3 6 2 24 12 40 34 56 67 103 71 103 3 0 -6 -17 -18 -37z m122 -32 c-17
-34 -35 -61 -41 -61 -5 0 8 29 28 64 20 36 38 63 40 61 2 -1 -11 -30 -27 -64z
m-654 27 c-3 -7 -5 -2 -5 12 0 14 2 19 5 13 2 -7 2 -19 0 -25z m563 -7 c-11
-17 -27 -46 -36 -67 -18 -42 -30 -41 -14 2 12 29 57 94 66 94 3 0 -4 -13 -16
-29z m245 -121 c-64 -77 -120 -140 -125 -140 -12 0 -70 50 -70 61 0 5 21 24
47 42 25 17 94 67 152 109 57 43 107 76 109 73 2 -2 -48 -67 -113 -145z m-878
93 c-3 -10 -5 -2 -5 17 0 19 2 27 5 18 2 -10 2 -26 0 -35z m749 -22 c-15 -28
-28 -51 -31 -51 -3 0 7 25 22 55 15 30 29 53 31 51 2 -2 -8 -27 -22 -55z
m-782 34 c3 -8 1 -15 -4 -15 -6 0 -10 7 -10 15 0 8 2 15 4 15 2 0 6 -7 10 -15z
m681 -32 c-14 -21 -25 -45 -25 -55 0 -9 -4 -19 -9 -23 -14 -8 3 47 25 85 10
16 22 30 27 30 4 0 -4 -17 -18 -37z m-228 -88 c110 -30 232 -103 304 -181 65
-71 147 -210 128 -216 -7 -2 -5 -30 7 -86 19 -89 40 -113 31 -34 -4 32 -3 40
3 25 5 -12 11 -58 14 -102 3 -64 1 -83 -10 -89 -8 -5 -16 -18 -17 -30 -1 -12
-5 -22 -10 -22 -4 0 -7 6 -6 13 4 33 -2 78 -11 72 -5 -3 -8 -22 -6 -42 4 -56
-13 -124 -30 -121 -10 2 -23 -18 -39 -57 -31 -74 -31 -83 -3 -59 l21 19 -18
-30 c-22 -37 -117 -126 -167 -157 -21 -13 -38 -29 -38 -35 0 -17 12 -16 36 2
10 8 23 15 27 15 17 0 -6 -21 -56 -53 -70 -44 -87 -53 -57 -28 l25 21 -23 0
c-13 0 -33 -5 -44 -11 -20 -11 -20 -13 -5 -24 16 -11 16 -13 -5 -18 -18 -5
-20 -9 -10 -19 9 -9 21 -7 57 10 31 15 43 17 39 7 -6 -15 -9 -17 -109 -52
-185 -66 -425 -22 -600 110 -57 44 -133 136 -177 214 -159 287 -66 682 201
859 88 58 190 101 270 114 69 11 213 3 278 -15z m-837 -30 c7 -9 11 -17 8 -20
-2 -2 -12 4 -21 15 -9 11 -13 20 -8 20 5 0 14 -7 21 -15z m154 -103 c-5 -8
-32 15 -74 63 l-45 50 61 -55 c33 -30 59 -57 58 -58z m1174 76 c-8 -13 -21
-33 -29 -45 -7 -13 -19 -25 -26 -28 -12 -4 11 35 46 78 20 24 26 21 9 -5z
m-79 -50 c-18 -24 -34 -45 -36 -47 -2 -2 -6 -2 -9 1 -5 6 63 88 73 88 3 0 -10
-19 -28 -42z m-1131 -63 c-3 -3 -18 11 -33 32 l-28 38 34 -32 c18 -18 30 -35
27 -38z m1212 56 c0 -4 -10 -19 -22 -32 -13 -14 -31 -36 -41 -49 -10 -14 -15
-18 -11 -10 7 16 67 99 72 100 1 0 2 -4 2 -9z m-1250 -73 c0 -14 -19 1 -31 25
-12 22 -12 22 10 3 11 -11 21 -23 21 -28z m-221 -5 c44 -17 83 -25 122 -24 40
0 63 -4 74 -15 18 -19 18 -22 1 -54 -12 -21 -20 -24 -57 -21 -42 3 -112 31
-124 50 -3 5 -31 20 -63 32 -54 20 -86 25 -191 28 -72 2 -39 16 63 26 27 3 51
7 53 9 7 7 59 -6 122 -31z m1482 4 c-10 -9 -11 -8 -5 6 3 10 9 15 12 12 3 -3
0 -11 -7 -18z m395 -44 c-4 -5 -11 -8 -15 -8 -3 0 -37 -15 -75 -34 -59 -29
-77 -33 -140 -32 -59 1 -82 -4 -122 -24 -63 -32 -71 -31 -79 6 -8 37 6 55 59
73 37 13 51 13 186 0 57 -5 83 -3 110 9 36 16 89 23 76 10z m-2056 -93 c18
-12 2 -12 -25 0 -13 6 -15 9 -5 9 8 0 22 -4 30 -9z m240 0 c8 -5 11 -10 5 -10
-5 0 -17 5 -25 10 -8 5 -10 10 -5 10 6 0 17 -5 25 -10z m1620 -20 c-8 -6 -32
-10 -52 -10 -21 0 -60 -9 -88 -19 -48 -18 -64 -15 -37 7 15 13 88 27 147 29
30 1 40 -1 30 -7z m106 1 c-6 -9 -46 -22 -46 -15 0 3 10 9 23 14 29 11 29 11
23 1z m-1701 -24 c13 -3 9 -5 -11 -6 -16 0 -39 6 -50 14 -18 14 -17 14 11 5
17 -5 39 -11 50 -13z m1487 -22 c-24 -7 -53 -22 -65 -32 -21 -18 -21 -18 -7 1
17 22 66 45 95 45 11 0 1 -6 -23 -14z m158 -14 c-8 -5 -48 -16 -89 -25 -40 -9
-87 -24 -102 -32 -34 -17 -39 -1 -6 20 23 15 54 23 121 31 21 2 40 6 42 8 2 1
13 3 26 4 17 1 19 0 8 -6z m-1610 -12 c0 -11 -40 -12 -57 -1 -8 5 1 8 22 9 19
1 35 -3 35 -8z m1850 -89 c-33 -11 -79 -12 -63 -2 7 4 29 8 50 9 33 1 35 0 13
-7z m-80 -9 c0 -9 -47 -17 -155 -26 -33 -3 -80 -8 -104 -10 -24 -2 -41 -2 -38
1 3 3 22 8 41 10 20 2 53 6 74 9 20 3 64 8 97 11 33 4 62 8 64 10 8 7 21 4 21
-5z m-1789 -18 c2 -32 -3 -68 -9 -74 -4 -4 -77 -10 -162 -13 -85 -4 -173 -9
-194 -13 -28 -4 -37 -3 -32 5 4 7 15 12 25 12 10 0 70 16 132 35 63 20 129 38
148 41 19 3 43 10 55 14 31 13 36 12 37 -7z m1474 -63 c22 -6 87 -19 145 -30
214 -39 276 -54 251 -60 -14 -3 -52 -3 -85 0 -34 3 -130 5 -213 5 l-153 0 -1
30 c0 17 -2 38 -4 48 -4 20 4 20 60 7z m333 -7 c-10 -2 -28 -2 -40 0 -13 2 -5
4 17 4 22 1 32 -1 23 -4z m-1828 -55 c0 -4 -55 -7 -122 -6 l-123 2 105 5 c140
8 140 8 140 -1z m-293 -4 c-3 -3 -12 -4 -19 -1 -8 3 -5 6 6 6 11 1 17 -2 13
-5z m40 0 c-3 -3 -12 -4 -19 -1 -8 3 -5 6 6 6 11 1 17 -2 13 -5z m243 -40 c0
-2 -13 -4 -30 -4 -16 0 -30 4 -30 8 0 5 14 7 30 4 17 -2 30 -6 30 -8z m-103 0
c-3 -3 -12 -4 -19 -1 -8 3 -5 6 6 6 11 1 17 -2 13 -5z m1563 -14 c0 -5 -5 -10
-11 -10 -5 0 -7 5 -4 10 3 6 8 10 11 10 2 0 4 -4 4 -10z m55 0 c16 -6 14 -8
-12 -7 -18 0 -30 4 -27 9 6 10 12 9 39 -2z m-1835 -20 c21 -7 18 -8 -18 -9
-26 -1 -41 3 -37 9 7 11 19 11 55 0z m1676 -56 c-4 -20 -10 -34 -12 -31 -3 3
-2 21 2 41 3 21 9 35 11 32 3 -3 2 -21 -1 -42z m32 21 c-1 -13 -6 -21 -10 -17
-5 5 -6 16 -2 25 9 24 14 21 12 -8z m95 18 c-7 -2 -21 -2 -30 0 -10 3 -4 5 12
5 17 0 24 -2 18 -5z m418 -54 c25 -6 14 -7 -36 -3 -38 2 -83 9 -100 14 -38 12
85 2 136 -11z m-403 4 c-10 -2 -28 -2 -40 0 -13 2 -5 4 17 4 22 1 32 -1 23 -4z
m-1434 -66 c26 -69 16 -77 -107 -92 -73 -9 -145 -46 -222 -116 l-69 -64 47 62
c57 75 93 104 173 139 69 30 88 45 121 98 28 43 32 41 57 -27z m1250 31 c-5
-8 -2 -9 9 -5 22 8 21 -1 -2 -64 -17 -43 -17 -50 -4 -45 29 12 -20 -56 -56
-76 -18 -11 -42 -29 -52 -41 -10 -12 -18 -18 -19 -12 0 5 13 23 29 40 16 16
45 57 65 90 30 51 34 62 21 71 -15 11 -10 54 7 54 5 0 6 -5 2 -12z m208 -52
c29 -13 63 -33 76 -45 33 -32 27 -37 -9 -7 -31 26 -86 54 -123 61 -25 6 -33
15 -13 15 9 0 40 -11 69 -24z m-1662 5 c0 -12 -61 -23 -205 -36 -38 -4 -73 -9
-77 -12 -5 -2 -8 0 -8 6 0 5 26 12 58 16 131 14 216 25 220 30 8 8 12 6 12 -4z
m1790 -7 l35 -14 -35 6 c-40 7 -76 24 -50 23 8 0 31 -7 50 -15z m-151 -23 c30
-16 143 -109 186 -154 27 -29 -52 30 -96 71 -28 26 -74 59 -102 74 -29 15 -46
27 -39 28 7 0 30 -9 51 -19z m-1802 -37 c-3 -3 -12 -4 -19 -1 -8 3 -5 6 6 6
11 1 17 -2 13 -5z m1739 -4 c15 -6 63 -45 106 -88 79 -78 122 -107 168 -115
36 -7 112 -39 106 -45 -3 -2 -23 2 -44 11 -21 9 -59 18 -83 22 -58 9 -117 35
-160 72 -45 40 -88 61 -138 69 -23 4 -41 8 -41 10 0 10 43 74 50 74 5 0 21 -5
36 -10z m-1361 -20 c-3 -5 -12 -10 -18 -10 -7 0 -6 4 3 10 19 12 23 12 15 0z
m-45 -20 c-8 -5 -24 -9 -35 -9 -16 1 -16 2 5 9 35 11 48 11 30 0z m-90 -12 c0
-6 -3 -9 -6 -6 -3 4 -19 2 -37 -3 -17 -5 -27 -5 -21 0 8 8 31 16 57 20 4 0 7
-4 7 -11z m136 -3 c-11 -8 -25 -15 -30 -15 -6 1 0 7 14 15 32 19 40 18 16 0z
m-46 -18 c-10 -8 -80 -16 -80 -8 0 4 19 8 42 10 23 1 40 0 38 -2z m70 -2 c0
-9 -72 -35 -94 -34 -15 1 -13 3 9 9 17 4 41 12 55 18 31 13 30 13 30 7z m1594
-76 c23 -10 50 -19 61 -19 11 0 31 -7 45 -16 l25 -15 -25 7 c-14 4 -47 13 -74
20 -55 14 -114 52 -135 86 -11 17 -4 14 24 -11 21 -18 57 -42 79 -52z m-1512
14 c18 -16 24 -49 10 -55 -4 -1 -25 -25 -47 -53 -22 -27 -47 -57 -55 -65 -9
-8 -38 -43 -64 -78 -27 -34 -51 -60 -54 -58 -2 3 17 37 43 77 26 40 67 112 92
161 25 48 48 88 51 88 3 0 14 -7 24 -17z m1176 -58 c18 -25 28 -45 22 -45 -5
0 -10 3 -10 8 0 4 -14 21 -30 39 -30 32 -36 43 -22 43 4 -1 22 -21 40 -45z
m78 13 c16 -18 20 -26 9 -18 -30 23 -56 50 -47 50 5 0 21 -14 38 -32z m-113
-32 c9 -13 22 -29 29 -37 45 -47 128 -148 128 -154 0 -5 -8 0 -18 11 -26 27
-103 115 -127 145 -44 53 -47 59 -37 59 5 0 17 -11 25 -24z m-1105 -13 c-12
-17 -58 -69 -128 -143 -20 -22 -16 -15 11 20 60 77 165 187 117 123z m1207
-158 c27 -33 76 -87 107 -119 32 -33 58 -64 58 -69 0 -10 -85 77 -169 172 -31
36 -80 90 -108 120 -29 31 -53 60 -53 66 0 12 94 -84 165 -170z m-1174 138
c-6 -10 -36 -45 -67 -78 -60 -64 -48 -43 25 43 47 54 59 64 42 35z m1007 -11
c15 -16 52 -57 82 -93 30 -35 85 -95 122 -132 64 -65 94 -104 46 -60 -13 11
-98 71 -190 133 -93 61 -168 115 -168 119 0 9 60 61 71 61 5 0 22 -13 37 -28z
m-828 -108 c0 -43 -12 -73 -45 -109 -44 -49 -58 -93 -56 -170 1 -54 -3 -80
-19 -110 -19 -37 -21 -32 -5 22 3 13 -1 59 -10 103 -18 90 -23 70 49 204 14
27 26 61 26 76 0 35 7 41 36 28 18 -9 24 -19 24 -44z m595 -51 c11 -17 21 -57
25 -105 6 -71 10 -81 46 -123 43 -51 84 -114 84 -130 0 -5 -8 3 -18 18 -9 16
-39 40 -66 54 -67 34 -93 67 -105 136 -11 61 -35 110 -72 142 l-21 20 39 16
c43 19 62 13 88 -28z m-526 -25 c-31 -62 -82 -138 -92 -138 -5 0 8 22 27 49
20 27 46 73 58 102 12 28 24 47 26 41 2 -6 -7 -30 -19 -54z m650 13 c19 -59
11 -69 -9 -11 -11 30 -20 56 -20 59 0 13 19 -18 29 -48z m-690 -10 c-6 -18
-13 -30 -15 -28 -2 2 1 18 7 36 6 18 13 30 15 28 2 -2 -1 -18 -7 -36z m237 26
c6 -3 12 -26 12 -49 10 -376 10 -374 -4 -341 -7 17 -16 44 -18 60 -27 156 -37
207 -50 263 -10 42 -12 66 -5 71 13 7 50 6 65 -4z m-161 -44 c-9 -15 -13 -19
-10 -8 4 11 10 29 13 40 3 11 7 14 9 8 3 -7 -3 -24 -12 -40z m291 6 c-3 -17
-6 -52 -7 -78 -1 -41 -2 -43 -8 -16 -6 23 -7 108 -2 123 1 1 6 2 12 2 8 0 9
-11 5 -31z m-688 -7 c-21 -30 -90 -112 -131 -156 -68 -72 -24 -9 58 84 76 87
101 111 73 72z m639 -179 c-2 -38 -3 -7 -3 67 0 74 1 105 3 68 2 -38 2 -98 0
-135z m-872 177 c-3 -5 -11 -10 -16 -10 -6 0 -7 5 -4 10 3 6 11 10 16 10 6 0
7 -4 4 -10z m105 -3 c0 -2 -15 -16 -32 -33 l-33 -29 29 33 c28 30 36 37 36 29z
m738 -119 c-2 -125 -5 -110 -10 40 -2 45 0 82 5 82 4 0 6 -55 5 -122z m-869
100 c-2 -2 -17 -14 -34 -28 l-30 -25 24 28 c14 15 29 27 34 27 6 0 8 -1 6 -2z
m1279 -127 c16 -26 16 -26 -4 -8 -23 19 -45 80 -43 118 0 14 7 1 15 -30 8 -29
22 -65 32 -80z m146 1 c54 -96 80 -152 71 -152 -3 0 -18 26 -34 58 -16 31 -45
84 -65 116 -33 55 -42 76 -32 76 2 0 29 -44 60 -98z m-913 54 c-9 -19 -17 -27
-19 -19 -3 11 23 53 33 53 1 0 -5 -15 -14 -34z m138 -77 c-22 -102 -27 -133
-28 -165 -1 -11 -8 -29 -17 -40 -8 -10 -13 -14 -10 -8 3 7 8 29 11 50 3 22 10
62 16 89 5 28 11 59 13 71 7 36 29 104 33 101 1 -2 -6 -46 -18 -98z m579 58
c7 -18 30 -58 53 -88 47 -61 79 -125 78 -154 0 -11 -7 0 -14 25 -8 25 -25 57
-37 72 -46 53 -54 64 -75 98 -25 42 -37 80 -26 80 5 0 14 -15 21 -33z m-598
-25 c0 -5 -7 -17 -15 -28 -14 -18 -14 -17 -4 9 12 27 19 34 19 19z m-52 -39
c-5 -21 -12 -40 -15 -43 -6 -6 7 61 14 73 10 17 11 4 1 -30z m427 -58 c3 -33
9 -76 12 -95 6 -42 -3 -37 -12 5 -9 46 -18 161 -12 155 2 -3 8 -32 12 -65z
m-408 3 c-3 -8 -6 -5 -6 6 -1 11 2 17 5 13 3 -3 4 -12 1 -19z m-40 -20 c-3 -8
-6 -5 -6 6 -1 11 2 17 5 13 3 -3 4 -12 1 -19z m17 -87 c-24 -98 -35 -130 -30
-91 4 43 39 180 46 180 3 0 -4 -40 -16 -89z m293 74 c0 -8 -4 -12 -9 -9 -5 3
-6 10 -3 15 9 13 12 11 12 -6z m-336 -82 c-9 -16 -10 -16 -11 -1 0 9 3 25 7
35 7 16 8 17 11 1 2 -10 -1 -25 -7 -35z m259 -18 c0 -25 -16 -24 -18 1 -1 15
2 22 8 19 6 -3 10 -12 10 -20z"/>
<path d="M965 1702 c-69 -11 -184 -73 -185 -99 0 -17 1 -17 69 12 70 29 140
26 184 -9 l28 -22 -53 -2 c-92 -2 -188 -42 -188 -77 0 -7 9 -20 20 -30 20 -18
21 -18 26 2 8 31 33 37 43 10 18 -45 47 -61 146 -77 49 -8 63 -6 96 11 50 25
51 52 5 102 -18 20 -29 37 -24 37 13 0 93 -80 101 -100 10 -28 27 11 21 50
-11 68 -74 144 -142 171 -31 12 -122 26 -147 21z m41 -183 c7 -12 -15 -31 -28
-23 -4 3 -8 12 -8 20 0 17 26 19 36 3z m129 -18 c5 -9 -39 -61 -51 -61 -7 0 6
42 18 58 12 14 25 16 33 3z"/>
<path d="M1565 1700 c-56 -14 -80 -28 -122 -70 -63 -61 -80 -132 -75 -313 2
-48 6 -62 27 -81 14 -13 25 -27 25 -32 -1 -5 -23 -19 -50 -32 l-50 -23 -50 27
c-47 25 -50 30 -45 56 9 39 -19 38 -40 -2 -19 -36 -11 -51 51 -99 30 -23 44
-41 44 -57 0 -29 26 -32 35 -4 8 26 21 26 28 0 7 -28 25 -25 33 5 3 14 12 25
19 25 13 0 43 22 92 68 28 26 25 52 -14 93 -21 23 -24 34 -22 93 2 67 26 126
51 126 7 0 21 -11 33 -25 30 -37 76 -47 117 -26 18 10 39 30 46 45 11 22 16
24 33 16 15 -9 17 -15 9 -30 -14 -26 -1 -31 38 -15 57 25 33 69 -67 120 -34
17 -133 18 -176 1 -15 -6 -13 -1 8 18 16 15 40 26 56 26 15 0 33 6 40 13 10
10 15 9 24 -3 7 -8 26 -14 42 -14 17 1 41 -3 54 -8 13 -5 28 -5 33 0 15 15
-25 54 -86 83 -62 30 -88 33 -141 19z m45 -196 c0 -16 -26 -19 -35 -4 -3 6 -4
14 0 20 8 13 35 1 35 -16z"/>
<path d="M1868 1349 c-10 -53 -9 -167 1 -174 12 -7 13 2 15 103 1 72 -8 112
-16 71z"/>
<path d="M1802 1131 c-15 -47 -15 -61 -2 -61 11 0 27 35 34 75 8 41 -20 29
-32 -14z"/>
<path d="M1238 1013 c-51 -26 -85 -29 -109 -7 -10 9 -22 13 -27 10 -12 -7 -21
-52 -13 -63 10 -14 75 -43 111 -49 19 -4 48 -13 64 -21 43 -22 125 -45 136
-38 6 3 10 14 10 24 0 19 55 50 133 75 25 8 31 32 14 56 -12 18 -17 19 -28 7
-27 -26 -51 -28 -88 -5 -22 13 -60 24 -98 28 -53 5 -70 2 -105 -17z m163 -86
c-17 -17 -86 -19 -121 -4 -34 14 -34 14 47 13 45 0 78 -5 74 -9z"/>
<path d="M1702 937 c-26 -27 -28 -37 -8 -37 8 0 22 10 30 22 30 42 13 53 -22
15z"/>
<path d="M1285 826 c-22 -7 -38 -16 -35 -21 5 -11 19 -11 67 0 27 6 36 3 56
-19 13 -14 32 -26 41 -26 19 0 22 33 3 48 -24 21 -90 29 -132 18z"/>
<path d="M329 2111 c14 -25 123 -121 139 -121 24 0 11 19 -55 79 -69 61 -103
79 -84 42z"/>
<path d="M290 2091 c0 -11 91 -91 103 -91 18 0 3 25 -35 61 -42 37 -68 49 -68
30z"/>
<path d="M410 1984 c0 -7 25 -29 53 -45 25 -14 22 6 -5 31 -21 19 -48 27 -48
14z"/>
<path d="M190 1902 c0 -14 87 -60 100 -52 9 6 1 16 -28 34 -41 25 -72 34 -72
18z"/>
<path d="M2489 1560 c-8 -4 -34 -11 -59 -16 -25 -4 -48 -9 -52 -10 -5 -1 -12
-2 -18 -3 -5 0 -10 -7 -10 -14 0 -11 14 -12 68 -5 92 10 112 16 112 32 0 18
-22 26 -41 16z"/>
<path d="M2375 910 c-3 -5 19 -21 51 -35 66 -29 77 -31 72 -9 -2 9 -25 25 -53
35 -58 22 -62 22 -70 9z"/>
</g>
</svg>
