<?xml version="1.0" standalone="no"?>
<!DOCTYPE svg PUBLIC "-//W3C//DTD SVG 20010904//EN"
 "http://www.w3.org/TR/2001/REC-SVG-20010904/DTD/svg10.dtd">
<svg version="1.0" xmlns="http://www.w3.org/2000/svg"
 width="700.000000pt" height="700.000000pt" viewBox="0 0 700.000000 700.000000"
 preserveAspectRatio="xMidYMid meet">
<metadata>
Created by potrace 1.14, written by Peter Selinger 2001-2017
</metadata>
<g transform="translate(0.000000,700.000000) scale(0.100000,-0.100000)"
fill="#000000" stroke="none">
<path d="M3255 6983 c-869 -108 -1511 -741 -1600 -1578 -7 -64 -8 -310 -1
-360 2 -16 7 -59 11 -95 4 -36 17 -110 30 -165 121 -517 467 -894 1098 -1194
187 -90 325 -144 619 -245 237 -82 362 -127 403 -145 11 -5 45 -20 75 -32 90
-38 341 -165 400 -203 154 -98 234 -160 330 -256 58 -58 112 -114 121 -125
165 -220 231 -425 225 -700 -3 -137 -7 -178 -22 -227 -3 -9 -6 -25 -8 -35 -8
-38 -48 -148 -73 -197 -54 -110 -149 -235 -251 -331 -193 -181 -504 -335 -792
-391 -14 -3 -32 -7 -40 -9 -8 -2 -37 -7 -65 -11 -27 -3 -59 -8 -70 -11 -42 -9
-324 -11 -395 -2 -322 39 -597 154 -905 378 -49 36 -101 75 -115 87 -86 73
-214 188 -271 244 -37 36 -78 75 -92 88 l-24 23 -142 -168 c-170 -200 -210
-247 -251 -293 -57 -64 -60 -56 73 -188 334 -331 686 -552 1110 -697 59 -20
115 -38 125 -40 9 -2 42 -10 72 -19 66 -17 201 -46 250 -52 19 -2 46 -7 60 -9
153 -30 567 -24 750 10 8 1 35 6 60 10 424 69 848 279 1120 554 234 236 415
561 475 854 2 10 6 26 9 35 3 9 8 40 12 67 3 28 8 53 10 56 24 41 23 610 -1
649 -2 3 -6 26 -10 50 -20 146 -97 362 -182 515 -224 404 -610 712 -1213 968
-168 71 -197 82 -522 192 -573 196 -862 348 -1083 570 -193 193 -276 402 -276
690 0 126 2 140 28 245 93 379 449 690 918 801 117 27 174 33 320 33 162 0
238 -10 375 -49 311 -90 590 -265 958 -602 20 -18 39 -33 43 -33 4 0 26 24 50
53 24 28 59 70 79 92 19 23 55 65 80 95 25 29 86 102 137 161 l92 107 -68 64
c-499 464 -936 699 -1421 763 -25 3 -61 8 -80 11 -81 12 -439 11 -545 -3z"/>
</g>
</svg>
